<?xml version="1.0" standalone="no"?>
<!DOCTYPE svg PUBLIC "-//W3C//DTD SVG 20010904//EN"
 "http://www.w3.org/TR/2001/REC-SVG-20010904/DTD/svg10.dtd">
<svg version="1.0" xmlns="http://www.w3.org/2000/svg"
 width="54.000000pt" height="54.000000pt" viewBox="0 0 54.000000 54.000000"
 preserveAspectRatio="xMidYMid meet">
<metadata>
Created by potrace 1.15, written by Peter Selinger 2001-2017
</metadata>
<g transform="translate(0.000000,54.000000) scale(0.100000,-0.100000)"
fill="#000000" stroke="none">
<path d="M333 520 c-4 -14 -14 -20 -32 -20 -20 0 -56 -30 -164 -138 -75 -75
-137 -142 -137 -147 0 -13 202 -215 215 -215 6 0 72 62 148 138 l137 137 0 70
c0 68 -1 70 -42 112 -31 31 -51 43 -73 44 -16 0 -24 3 -17 6 20 8 14 33 -9 33
-12 0 -23 -8 -26 -20z m9 -84 c17 -23 16 -24 -2 -29 -28 -7 -37 -53 -15 -77
23 -25 50 -25 75 0 24 24 25 43 5 64 -8 8 -15 21 -15 28 0 8 -5 19 -12 26 -9
9 -8 12 8 12 11 0 32 -13 47 -28 23 -24 27 -37 27 -88 l0 -59 -125 -125 -125
-125 -87 88 -88 87 125 125 c79 79 132 125 145 125 11 0 28 -11 37 -24z"/>
</g>
</svg>
