<?xml version="1.0" standalone="no"?>
<!DOCTYPE svg PUBLIC "-//W3C//DTD SVG 20010904//EN"
 "http://www.w3.org/TR/2001/REC-SVG-20010904/DTD/svg10.dtd">
<svg version="1.0" xmlns="http://www.w3.org/2000/svg"
 width="54.000000pt" height="54.000000pt" viewBox="0 0 54.000000 54.000000"
 preserveAspectRatio="xMidYMid meet">
<metadata>
Created by potrace 1.15, written by Peter Selinger 2001-2017
</metadata>
<g transform="translate(0.000000,54.000000) scale(0.100000,-0.100000)"
fill="#000000" stroke="none">
<path d="M150 513 c-18 -23 -21 -38 -18 -85 l4 -58 -47 0 c-31 0 -55 -6 -70
-19 l-23 -19 17 -108 c10 -60 20 -125 23 -144 9 -56 22 -60 179 -60 85 0 145
-4 151 -10 6 -6 44 -10 90 -8 l79 3 0 170 0 170 -78 3 c-44 2 -84 -2 -91 -7
-24 -20 -96 80 -96 131 0 67 -78 93 -120 41z m80 -22 c5 -11 10 -30 10 -42 0
-26 48 -104 85 -139 24 -22 25 -29 25 -137 l0 -113 -140 0 c-115 0 -140 3
-140 14 0 9 12 16 32 18 45 4 49 28 4 28 -25 0 -38 6 -46 20 -10 19 -8 20 35
20 33 0 45 4 45 14 0 11 -14 16 -47 18 -36 2 -49 7 -51 21 -3 13 4 17 30 17
18 0 39 4 47 9 24 15 1 31 -45 31 -44 0 -45 1 -42 28 3 24 7 27 48 30 92 5 90
3 90 91 0 43 3 81 7 84 13 14 43 7 53 -12z m280 -316 l0 -145 -60 0 -60 0 0
145 0 145 60 0 60 0 0 -145z"/>
</g>
</svg>
