<?xml version="1.0" standalone="no"?>
<!DOCTYPE svg PUBLIC "-//W3C//DTD SVG 20010904//EN"
 "http://www.w3.org/TR/2001/REC-SVG-20010904/DTD/svg10.dtd">
<svg version="1.0" xmlns="http://www.w3.org/2000/svg"
 width="55.000000pt" height="60.000000pt" viewBox="0 0 55.000000 60.000000"
 preserveAspectRatio="xMidYMid meet">
<metadata>
Created by potrace 1.15, written by Peter Selinger 2001-2017
</metadata>
<g transform="translate(0.000000,60.000000) scale(0.100000,-0.100000)"
fill="#000000" stroke="none">
<path d="M341 387 c-89 -117 -161 -218 -161 -225 0 -7 -9 -12 -20 -12 -11 0
-37 -16 -59 -35 -27 -24 -48 -35 -70 -35 -38 0 -40 -18 -6 -50 19 -18 40 -25
86 -28 52 -4 63 -2 84 18 14 13 29 38 35 56 7 19 16 34 21 34 5 0 75 99 154
220 149 227 168 270 121 270 -20 0 -54 -39 -185 -213z"/>
</g>
</svg>
