<?xml version="1.0" standalone="no"?>
<!DOCTYPE svg PUBLIC "-//W3C//DTD SVG 20010904//EN"
 "http://www.w3.org/TR/2001/REC-SVG-20010904/DTD/svg10.dtd">
<svg version="1.0" xmlns="http://www.w3.org/2000/svg"
 width="46.000000pt" height="60.000000pt" viewBox="0 0 46.000000 60.000000"
 preserveAspectRatio="xMidYMid meet">
<metadata>
Created by potrace 1.15, written by Peter Selinger 2001-2017
</metadata>
<g transform="translate(0.000000,60.000000) scale(0.100000,-0.100000)"
fill="#000000" stroke="none">
<path d="M132 588 c-7 -7 -12 -22 -12 -35 0 -21 -4 -23 -60 -23 -45 0 -60 -4
-60 -14 0 -8 5 -16 10 -18 6 -2 15 -95 22 -233 8 -178 14 -234 26 -247 13 -16
35 -18 173 -18 180 0 189 3 189 73 0 112 22 422 31 425 5 2 9 10 9 18 0 10
-15 14 -60 14 -56 0 -60 2 -60 23 0 39 -18 47 -110 47 -54 0 -91 -5 -98 -12z
m274 -110 c-3 -13 -7 -84 -11 -158 -3 -74 -8 -170 -11 -212 l-7 -78 -144 0
c-106 0 -145 3 -148 13 -3 6 -10 112 -17 235 l-13 222 178 0 177 0 -4 -22z"/>
<path d="M210 265 c0 -188 1 -195 20 -195 19 0 20 7 20 195 0 188 -1 195 -20
195 -19 0 -20 -7 -20 -195z"/>
</g>
</svg>
