<?xml version="1.0" standalone="no"?>
<!DOCTYPE svg PUBLIC "-//W3C//DTD SVG 20010904//EN"
 "http://www.w3.org/TR/2001/REC-SVG-20010904/DTD/svg10.dtd">
<svg version="1.0" xmlns="http://www.w3.org/2000/svg"
 width="60.000000pt" height="60.000000pt" viewBox="0 0 60.000000 60.000000"
 preserveAspectRatio="xMidYMid meet">
<metadata>
Created by potrace 1.15, written by Peter Selinger 2001-2017
</metadata>
<g transform="translate(0.000000,60.000000) scale(0.100000,-0.100000)"
fill="#000000" stroke="none">
<path d="M195 583 c-38 -20 -135 -113 -135 -130 0 -7 -6 -13 -13 -13 -18 0
-47 -32 -47 -51 0 -17 50 -69 66 -69 16 0 44 34 44 53 0 32 44 19 88 -26 l42
-43 -44 -43 c-34 -33 -49 -42 -65 -36 -32 10 -88 -13 -111 -45 -25 -35 -28
-108 -4 -117 9 -3 27 6 45 23 22 21 32 25 41 16 9 -9 5 -19 -16 -41 -39 -40
-29 -61 26 -61 24 0 54 7 66 16 33 23 55 72 49 109 -5 28 0 38 32 69 l38 37
110 -115 c67 -70 118 -116 130 -116 25 0 63 40 63 67 0 14 -39 58 -115 129
l-115 108 38 39 c29 29 42 37 60 32 34 -8 88 12 112 42 13 17 20 41 20 70 0
56 -21 66 -61 27 -22 -21 -32 -25 -41 -16 -9 9 -5 19 16 41 17 18 26 36 23 45
-9 24 -82 21 -117 -4 -32 -23 -55 -79 -45 -111 5 -16 -2 -30 -31 -60 -21 -21
-43 -39 -49 -39 -23 0 -80 71 -81 100 -2 32 36 73 83 91 13 5 23 15 23 24 0
21 -84 20 -125 -2z m292 -31 c-34 -35 -34 -55 0 -82 l26 -21 29 28 c33 32 45
25 28 -17 -16 -39 -61 -63 -102 -55 -26 6 -36 2 -74 -36 -34 -34 -47 -40 -56
-31 -9 9 -3 22 31 56 36 37 42 49 37 70 -10 42 17 93 56 105 51 14 54 13 25
-17z m-203 -212 c5 0 73 -61 152 -136 138 -131 144 -138 128 -155 -10 -11 -21
-19 -26 -19 -14 0 -268 269 -268 283 0 4 -22 27 -50 53 -27 25 -47 51 -44 56
4 6 27 -11 53 -36 26 -25 50 -46 55 -46z m-50 -131 c-40 -41 -45 -51 -40 -76
10 -43 -9 -81 -49 -100 -46 -22 -55 -10 -20 27 l29 30 -24 25 c-30 32 -47 32
-82 -2 -30 -29 -34 -23 -17 27 14 37 58 60 104 53 25 -4 37 3 74 41 35 36 48
43 58 34 11 -9 5 -20 -33 -59z"/>
</g>
</svg>
