<?xml version="1.0" standalone="no"?>
<!DOCTYPE svg PUBLIC "-//W3C//DTD SVG 20010904//EN"
 "http://www.w3.org/TR/2001/REC-SVG-20010904/DTD/svg10.dtd">
<svg version="1.0" xmlns="http://www.w3.org/2000/svg"
 width="52.000000pt" height="54.000000pt" viewBox="0 0 52.000000 54.000000"
 preserveAspectRatio="xMidYMid meet">
<metadata>
Created by potrace 1.15, written by Peter Selinger 2001-2017
</metadata>
<g transform="translate(0.000000,54.000000) scale(0.100000,-0.100000)"
fill="#000000" stroke="none">
<path d="M80 520 c0 -17 -7 -20 -40 -20 l-40 0 0 -199 c0 -172 2 -200 16 -205
9 -3 58 -6 110 -6 87 0 94 1 94 20 0 19 -7 20 -95 20 l-95 0 0 110 0 110 190
0 190 0 0 -30 c0 -20 5 -30 15 -30 13 0 15 16 13 103 l-3 102 -37 3 c-30 3
-38 7 -38 23 0 16 -7 19 -45 19 -38 0 -45 -3 -45 -20 0 -17 -7 -20 -50 -20
-43 0 -50 3 -50 20 0 17 -7 20 -45 20 -38 0 -45 -3 -45 -20z m0 -65 c0 -18 40
-29 69 -20 12 3 21 13 21 21 0 10 13 14 49 14 40 0 50 -3 54 -20 8 -31 87 -25
87 6 0 8 10 14 25 14 23 0 25 -4 25 -40 l0 -40 -190 0 -190 0 0 40 c0 36 3 40
25 40 15 0 25 -6 25 -15z"/>
<path d="M291 242 c-67 -64 -68 -138 -2 -204 35 -34 44 -38 91 -38 86 0 140
54 140 140 0 84 -56 140 -142 140 -41 0 -52 -5 -87 -38z m165 -26 c74 -74 26
-186 -79 -186 -100 0 -140 148 -54 200 50 31 93 26 133 -14z"/>
</g>
</svg>
