<?xml version="1.0" standalone="no"?>
<!DOCTYPE svg PUBLIC "-//W3C//DTD SVG 20010904//EN"
 "http://www.w3.org/TR/2001/REC-SVG-20010904/DTD/svg10.dtd">
<svg version="1.0" xmlns="http://www.w3.org/2000/svg"
 width="35.000000pt" height="54.000000pt" viewBox="0 0 35.000000 54.000000"
 preserveAspectRatio="xMidYMid meet">
<metadata>
Created by potrace 1.15, written by Peter Selinger 2001-2017
</metadata>
<g transform="translate(0.000000,54.000000) scale(0.100000,-0.100000)"
fill="#000000" stroke="none">
<path d="M155 531 c-6 -5 -26 -11 -45 -13 -27 -2 -36 -8 -38 -25 -2 -14 -11
-23 -25 -25 -17 -2 -22 -10 -23 -36 0 -18 -6 -38 -12 -44 -15 -15 -16 -45 -2
-53 6 -3 10 -20 10 -36 0 -21 7 -32 23 -40 13 -6 27 -20 32 -32 7 -15 19 -22
37 -22 15 0 33 -6 39 -12 17 -17 34 -16 49 2 7 9 21 13 30 10 25 -8 50 4 50
24 0 9 13 22 31 28 27 11 30 15 24 42 -3 17 -2 32 4 36 14 8 14 52 1 60 -6 4
-9 18 -8 33 2 19 -3 29 -22 38 -13 7 -28 22 -32 33 -5 15 -16 21 -37 21 -16 0
-33 5 -36 10 -8 13 -38 13 -50 1z m44 -35 c6 -7 22 -11 36 -8 20 3 25 0 25
-17 0 -13 8 -23 23 -27 19 -4 23 -10 19 -31 -3 -17 1 -29 12 -35 16 -9 16 -11
0 -29 -10 -11 -14 -27 -11 -40 4 -16 0 -23 -14 -26 -11 -3 -25 -17 -30 -30 -7
-19 -14 -23 -30 -18 -13 4 -27 1 -38 -9 -17 -15 -19 -15 -31 -1 -9 10 -22 14
-37 11 -18 -5 -24 -1 -29 19 -4 16 -13 25 -26 25 -17 0 -19 5 -15 27 3 18 0
31 -11 39 -15 11 -15 14 1 32 15 16 16 25 8 40 -9 17 -7 21 14 26 13 3 27 15
30 27 5 14 13 19 25 16 11 -3 27 1 37 9 23 17 28 17 42 0z"/>
<path d="M104 436 c-25 -25 -34 -43 -34 -67 0 -80 75 -134 145 -105 43 18 65
52 65 99 0 31 -7 46 -34 73 -47 47 -95 47 -142 0z m120 -17 c48 -38 29 -123
-29 -129 -85 -9 -128 68 -70 125 30 30 64 32 99 4z"/>
<path d="M70 101 c0 -91 2 -101 18 -101 10 0 33 16 52 35 l33 34 39 -34 c60
-55 68 -49 68 49 0 46 3 92 6 101 5 13 2 16 -12 13 -16 -3 -19 -14 -22 -81 -4
-100 -22 -92 -22 9 0 56 -3 75 -12 72 -7 -3 -15 -27 -18 -54 -4 -41 -8 -49
-25 -49 -17 0 -21 8 -25 49 -3 28 -11 51 -18 54 -10 3 -13 -12 -11 -65 3 -102
-15 -118 -21 -19 -3 51 -10 81 -17 84 -10 3 -13 -21 -13 -97z"/>
</g>
</svg>
